<?xml version="1.0" standalone="no"?>
<!DOCTYPE svg PUBLIC "-//W3C//DTD SVG 20010904//EN"
 "http://www.w3.org/TR/2001/REC-SVG-20010904/DTD/svg10.dtd">
<svg version="1.0" xmlns="http://www.w3.org/2000/svg"
 width="275.000000pt" height="183.000000pt" viewBox="0 0 275.000000 183.000000"
 preserveAspectRatio="xMidYMid meet">

<g transform="translate(0.000000,183.000000) scale(0.100000,-0.100000)"
fill="#000000" stroke="none">
<path d="M0 915 l0 -915 1375 0 1375 0 0 915 0 915 -1375 0 -1375 0 0 -915z
m1069 609 c9 -8 -55 -2 -74 6 -13 6 -5 7 25 3 25 -3 47 -7 49 -9z m-121 -22
c2 -7 -3 -12 -12 -12 -9 0 -16 7 -16 16 0 17 22 14 28 -4z m-38 -8 c0 -8 -4
-12 -10 -9 -5 3 -10 10 -10 16 0 5 5 9 10 9 6 0 10 -7 10 -16z m415 -9 c39 -8
106 -21 150 -29 44 -9 112 -22 150 -31 136 -32 208 -44 218 -38 5 3 15 -1 22
-10 6 -9 23 -18 37 -21 15 -2 35 -9 46 -15 12 -6 40 -11 64 -11 24 0 50 -4 58
-10 9 -5 19 -5 27 2 10 8 18 6 31 -6 10 -9 26 -16 36 -16 9 0 38 -5 62 -11 31
-8 41 -14 32 -20 -7 -5 -22 -6 -33 -2 -18 5 -18 4 -3 -11 21 -20 27 -20 50 0
22 20 43 7 51 -32 3 -19 -1 -27 -15 -33 -18 -6 -18 -8 -4 -20 9 -8 16 -17 16
-22 0 -13 -81 1 -107 19 -19 12 -23 12 -23 1 1 -19 99 -96 133 -104 41 -11 33
-28 -10 -23 -46 7 -139 60 -135 78 3 13 -15 30 -31 30 -12 0 14 -43 41 -66
l24 -21 -27 -5 c-15 -3 -48 1 -73 9 -26 8 -83 19 -127 23 -87 9 -215 45 -215
60 0 14 36 12 75 -4 44 -19 45 -7 3 25 -63 48 -73 58 -59 59 20 0 90 -41 121
-72 31 -31 76 -46 92 -30 7 7 1 24 -20 54 -57 80 -102 118 -102 86 -1 -23 -17
15 -25 57 -5 32 -9 36 -16 22 -12 -21 -55 -22 -67 -2 -6 12 -38 18 -126 25
-65 6 -121 12 -125 14 -4 3 -25 7 -46 9 -22 3 -53 11 -70 17 -25 10 -47 14
-128 19 -4 1 -23 17 -43 36 l-35 35 28 0 c15 -1 60 -7 98 -15z m-491 -41 c4
-10 -4 -30 -20 -51 -21 -27 -29 -32 -40 -22 -19 15 -18 29 2 29 11 0 14 6 9
21 -11 34 37 55 49 23z m380 -4 c-22 -9 -29 -6 -20 9 4 6 14 7 23 4 15 -6 14
-7 -3 -13z m-450 -15 c17 -13 17 -14 -9 -12 -16 1 -30 8 -33 15 -5 16 18 15
42 -3z m133 -4 c3 -11 11 -17 18 -15 7 3 19 -2 28 -10 20 -21 33 -20 41 1 5
11 10 13 17 6 11 -11 1 -45 -12 -37 -5 3 -9 0 -9 -6 0 -8 -6 -7 -21 1 -12 6
-30 9 -40 6 -10 -3 -19 -1 -19 4 0 4 -10 17 -22 29 -12 11 -16 20 -9 20 7 0 9
5 6 10 -3 6 -1 10 5 10 7 0 14 -9 17 -19z m-254 -36 c-3 -8 0 -15 6 -15 6 0
11 -4 11 -9 0 -16 -32 -5 -42 13 -8 13 -7 21 3 27 17 10 29 2 22 -16z m413 -1
c-3 -8 -1 -14 4 -14 16 0 11 -17 -7 -24 -10 -4 -14 -4 -10 0 4 4 0 16 -10 26
-10 12 -12 18 -4 18 7 0 9 4 6 10 -3 6 1 7 10 4 9 -4 14 -13 11 -20z m219 -10
c9 -13 11 -24 5 -24 -6 0 -14 8 -17 18 -4 9 -14 23 -22 30 -14 11 -14 11 1 6
9 -3 24 -17 33 -30z m-408 -6 c-3 -8 -6 -5 -6 6 -1 11 2 17 5 13 3 -3 4 -12 1
-19z m260 -3 c0 -8 -4 -12 -9 -9 -5 3 -6 10 -3 15 9 13 12 11 12 -6z m33 -4
c0 -6 -4 -13 -10 -16 -5 -3 -10 1 -10 9 0 9 5 16 10 16 6 0 10 -4 10 -9z m35
-29 c-3 -3 -11 0 -18 7 -9 10 -8 11 6 5 10 -3 15 -9 12 -12z m-272 -1 c4 0 7
-8 7 -17 0 -8 -4 -12 -10 -9 -5 3 -10 -1 -10 -9 0 -23 -22 -31 -35 -13 -7 10
-15 17 -19 17 -11 0 -36 27 -30 33 5 4 68 3 97 -2z m92 -12 c-10 -15 25 -17
67 -4 25 7 50 10 57 6 7 -5 22 -6 34 -4 18 2 26 -6 42 -40 l20 -42 -23 -2
c-14 0 -30 10 -43 28 -21 30 -66 42 -56 15 8 -20 -3 -27 -25 -15 -15 8 -24 7
-39 -7 -15 -13 -22 -15 -31 -6 -14 14 -48 16 -48 3 0 -5 -9 -7 -20 -4 -14 4
-20 0 -20 -11 0 -9 -6 -13 -14 -10 -17 6 -13 44 6 56 24 15 103 4 92 -13 -3
-5 -1 -9 4 -9 20 0 19 14 -4 37 -28 28 -29 30 -9 30 8 0 12 -4 10 -8z m289 -8
c3 -4 25 -7 48 -5 123 11 168 12 168 4 0 -5 17 -14 38 -20 63 -17 71 -28 26
-36 -21 -3 -46 -10 -54 -14 -9 -5 -23 -4 -33 1 -19 11 -20 9 -11 -15 3 -9 10
-13 15 -10 5 3 18 -5 29 -18 11 -13 19 -19 20 -15 0 5 13 -1 29 -12 16 -12 32
-21 35 -21 3 0 30 -12 60 -26 41 -19 58 -34 67 -57 7 -18 14 -35 17 -39 2 -5
-1 -8 -6 -8 -5 0 -13 11 -16 25 -6 22 -11 25 -46 23 -30 -1 -47 5 -65 22 -13
13 -22 26 -20 30 3 5 -2 11 -10 14 -20 7 -89 -59 -81 -79 6 -17 -9 -20 -20 -4
-4 7 -9 8 -17 0 -7 -7 -6 -15 3 -26 11 -13 15 -13 22 -3 6 8 8 0 6 -23 -3 -26
1 -40 13 -47 19 -12 29 -6 29 16 0 8 -6 12 -13 9 -8 -3 -13 3 -13 14 0 11 4
19 8 19 4 0 8 7 8 16 0 23 25 -5 33 -36 3 -14 8 -35 11 -48 5 -23 36 -72 68
-106 10 -11 18 -23 18 -28 0 -4 9 -8 21 -8 11 0 34 -9 50 -21 17 -12 39 -19
49 -16 11 3 23 1 26 -4 3 -5 11 -9 19 -9 23 0 76 -57 69 -74 -3 -9 0 -24 7
-34 11 -14 10 -13 -8 2 -18 15 -26 16 -37 7 -11 -9 -15 -9 -19 1 -4 9 -6 8 -6
-3 -1 -9 -8 -19 -16 -23 -8 -3 -14 0 -12 6 3 17 -19 20 -35 4 -13 -13 -19 -12
-44 5 -16 10 -30 24 -30 31 -1 7 -2 21 -3 31 0 10 -5 15 -11 12 -5 -3 -10 -2
-10 3 0 5 -11 7 -25 4 -17 -3 -34 4 -55 22 -18 14 -36 26 -42 26 -19 0 -146
84 -158 105 -7 11 -9 17 -5 13 4 -4 14 0 23 8 10 11 25 14 49 9 18 -3 33 -4
33 -1 0 2 3 11 6 20 4 11 1 16 -11 16 -13 0 -16 6 -12 22 10 37 -26 88 -63 88
-12 0 -18 5 -15 10 3 6 0 10 -8 10 -8 0 -20 14 -26 30 -11 32 -10 32 59 14 11
-3 15 4 15 25 0 19 -4 27 -12 24 -7 -3 -13 -11 -13 -19 0 -18 -26 -8 -56 23
-19 19 -28 22 -44 13 -15 -8 -20 -8 -20 2 0 6 -7 3 -15 -8 -12 -16 -16 -17
-24 -4 -11 16 -13 14 -28 -13 -8 -16 -10 -16 -21 8 -9 19 -9 25 1 25 8 0 7 4
-3 10 -13 8 -12 10 5 11 11 1 25 1 31 0 7 -1 15 6 18 15 5 12 9 14 20 5 16
-13 49 -4 40 11 -4 6 -10 5 -15 -3 -7 -11 -9 -10 -9 4 0 10 -4 15 -10 12 -5
-3 -10 1 -10 9 0 19 -16 21 -23 4 -2 -7 -7 -10 -11 -7 -7 7 31 59 44 59 5 0
11 -4 14 -9z m396 -1 c0 -5 -9 -10 -19 -10 -11 0 -23 5 -26 10 -4 6 5 10 19
10 14 0 26 -4 26 -10z m754 -39 c15 -22 30 -57 33 -79 5 -37 4 -39 -19 -37
-40 5 -92 45 -58 45 26 0 5 23 -42 46 -56 27 -29 26 36 -1 25 -11 36 -21 32
-30 -6 -17 10 -30 19 -16 3 6 -6 33 -20 61 -30 60 -19 66 19 11z m-1719 -1 c3
-5 1 -10 -4 -10 -6 0 -11 5 -11 10 0 6 2 10 4 10 3 0 8 -4 11 -10z m85 2 c0
-4 -9 -8 -20 -9 -11 -1 -18 2 -15 8 7 11 35 12 35 1z m70 -22 c0 -5 -4 -10
-10 -10 -5 0 -10 5 -10 10 0 6 5 10 10 10 6 0 10 -4 10 -10z m-30 -4 c0 -2
-16 -6 -35 -8 -19 -2 -35 0 -35 4 0 4 16 8 35 8 19 0 35 -2 35 -4z m-200 -16
c0 -5 -5 -10 -11 -10 -5 0 -7 5 -4 10 3 6 8 10 11 10 2 0 4 -4 4 -10z m1217
-22 c-3 -7 -5 -2 -5 12 0 14 2 19 5 13 2 -7 2 -19 0 -25z m-1132 12 c-11 -5
-29 -9 -40 -9 l-20 0 20 9 c11 5 29 9 40 9 l20 0 -20 -9z m-65 -8 c0 -11 -80
-36 -87 -28 -3 3 0 7 8 9 12 4 69 23 77 26 1 1 2 -3 2 -7z m436 -20 c6 -9 18
-13 28 -9 10 4 16 1 16 -8 0 -8 -6 -15 -12 -15 -7 -1 -2 -7 12 -15 26 -15 80
-20 80 -7 0 4 10 7 23 8 12 0 29 2 37 5 10 3 16 -5 18 -23 2 -17 8 -25 16 -22
8 3 16 -2 20 -12 5 -14 4 -15 -8 -5 -10 8 -16 9 -21 1 -3 -5 -17 -10 -31 -10
-21 0 -28 8 -26 30 0 3 -15 6 -34 8 -22 1 -33 -2 -29 -8 8 -13 -1 -13 -24 1
-13 9 -26 9 -51 1 -33 -12 -55 -8 -45 9 4 5 17 6 31 3 14 -4 24 -2 24 4 0 13
-36 26 -49 17 -5 -3 -12 -1 -16 5 -3 5 3 10 14 10 19 0 20 2 9 20 -7 11 -18
20 -25 20 -7 0 -13 5 -13 11 0 14 42 0 56 -19z m-46 -17 c0 -8 -4 -15 -10 -15
-5 0 -10 7 -10 15 0 8 5 15 10 15 6 0 10 -7 10 -15z m1503 -10 c16 -3 39 -16
52 -28 12 -12 31 -27 41 -33 22 -12 67 -92 59 -104 -7 -11 -42 -1 -57 18 -7 8
-13 26 -13 40 0 33 -28 51 -54 35 -15 -9 -23 -8 -40 4 -35 24 -35 8 0 -32 32
-36 32 -37 8 -33 -16 2 -30 16 -44 43 -11 22 -23 43 -28 46 -4 3 -2 19 4 37 8
25 14 29 27 22 9 -5 30 -11 45 -15z m-1513 -15 c8 -5 11 -13 6 -17 -5 -4 -11
-2 -13 5 -3 6 -9 10 -14 6 -5 -3 -9 0 -9 5 0 13 10 14 30 1z m-110 -34 c0 -3
-4 -8 -10 -11 -5 -3 -10 -1 -10 4 0 6 5 11 10 11 6 0 10 -2 10 -4z m67 -22
c-3 -3 -12 -4 -19 -1 -8 3 -5 6 6 6 11 1 17 -2 13 -5z m-62 -14 c-3 -5 -14
-10 -23 -10 -15 0 -15 2 -2 10 20 13 33 13 25 0z m394 -50 c5 0 7 9 4 20 -3
11 0 20 6 20 6 0 11 -4 11 -9 0 -5 7 -17 16 -26 9 -9 13 -19 10 -23 -4 -3 -11
0 -16 8 -7 12 -12 11 -30 -5 -12 -11 -33 -21 -47 -23 -14 -2 -35 -9 -46 -17
-23 -16 -47 -4 -47 22 0 13 2 13 17 2 11 -10 14 -10 9 -1 -4 7 -1 12 9 12 9 0
13 -5 10 -10 -4 -7 2 -9 17 -5 13 4 33 7 43 9 22 3 31 21 16 31 -6 3 -11 14
-10 23 0 12 3 11 9 -5 5 -13 14 -23 19 -23z m468 -42 c1 -23 8 -45 15 -49 7
-4 9 -11 5 -15 -4 -4 -15 0 -25 9 -20 18 -60 13 -79 -10 -16 -21 -33 -7 -33
26 0 33 24 70 34 52 5 -8 13 -8 27 -1 11 6 17 15 14 21 -4 5 4 9 17 9 21 0 24
-5 25 -42z m473 32 c0 -6 -10 -15 -22 -21 -15 -6 -29 -28 -41 -63 -26 -80 -20
-86 79 -86 53 0 98 -6 121 -15 20 -9 66 -15 109 -15 43 0 74 -4 74 -10 0 -5
-9 -10 -21 -10 -23 0 -54 -26 -40 -34 5 -4 11 -2 13 3 4 11 58 2 58 -9 0 -5
-9 -12 -21 -15 -19 -6 -19 -8 -4 -25 11 -12 13 -20 6 -25 -18 -11 -12 -25 14
-37 19 -8 24 -16 19 -31 -3 -11 -2 -17 3 -14 5 3 24 -3 41 -13 33 -20 35 -49
3 -51 -9 -1 -20 -2 -26 -4 -5 -1 -14 -3 -20 -4 -5 -1 4 -8 20 -16 29 -13 29
-13 5 -14 -14 0 -50 6 -80 14 -77 21 -105 18 -55 -5 22 -10 50 -19 62 -19 12
-1 25 -5 28 -11 4 -6 -35 -8 -104 -7 -60 1 -107 -1 -105 -5 3 -4 25 -14 50
-21 50 -15 61 -30 25 -35 -19 -3 -21 -6 -10 -14 10 -7 6 -8 -15 -3 -77 17 -89
18 -83 8 4 -7 -8 -12 -33 -15 -22 -2 -42 1 -45 7 -3 6 -7 6 -10 -1 -3 -7 -15
-10 -26 -7 -18 5 -17 8 12 25 17 11 39 17 48 14 12 -5 12 -3 -3 8 -10 9 -15
20 -10 27 5 9 2 10 -9 6 -10 -4 -16 -2 -14 6 4 23 -47 13 -58 -10 -5 -13 -18
-23 -28 -23 -10 0 -15 5 -12 10 3 6 0 16 -7 23 -20 18 -55 20 -61 2 -4 -9 -19
-15 -36 -15 -28 0 -49 -15 -37 -27 12 -13 96 -15 111 -3 10 8 15 9 15 2 0 -6
-8 -16 -17 -22 -15 -9 -13 -10 10 -5 27 5 38 -8 15 -19 -7 -3 -4 -4 6 -3 10 1
21 -4 23 -11 4 -9 -2 -11 -21 -6 -21 5 -26 3 -27 -12 0 -11 -3 -14 -5 -7 -3 7
-12 9 -19 7 -27 -11 -39 8 -14 22 24 13 24 13 -8 11 -36 -2 -35 -2 -27 -34 5
-18 11 -22 30 -17 15 4 24 2 24 -5 0 -6 -11 -11 -25 -11 -14 0 -25 -6 -26 -12
0 -7 -7 1 -14 18 -9 19 -24 34 -40 38 -14 4 -25 13 -25 21 0 8 -5 14 -12 13
-7 -2 -13 7 -14 19 -4 62 -36 70 -74 19 -22 -30 -27 -33 -41 -20 -9 8 -18 12
-20 10 -2 -2 -10 3 -18 12 -13 14 -11 15 23 9 27 -4 43 -2 53 9 13 13 12 16
-6 32 -16 13 -18 21 -11 32 9 13 12 13 23 -1 16 -21 54 -33 62 -19 4 6 3 10
-2 9 -19 -3 -46 1 -40 7 3 4 -2 14 -11 23 -10 9 -13 12 -6 8 14 -9 59 -5 70 6
4 4 2 7 -5 7 -7 0 -9 5 -6 10 3 6 -1 10 -9 10 -9 0 -16 4 -16 10 0 5 8 7 18 3
16 -6 16 -5 1 13 -17 19 -15 44 2 44 6 0 7 -5 4 -10 -4 -6 -1 -17 5 -25 6 -8
9 -19 6 -24 -4 -6 11 -15 34 -21 54 -14 56 -46 5 -56 -20 -3 -33 -9 -30 -13 9
-9 104 -8 98 2 -2 4 3 10 11 13 19 7 21 30 4 37 -8 3 -6 6 5 6 9 1 17 -3 17
-7 0 -5 6 -9 13 -9 144 -9 179 -10 162 -4 -19 8 -19 8 5 16 31 10 48 27 42 43
-2 6 1 12 7 12 6 0 11 7 11 15 0 22 -31 54 -46 48 -9 -3 -14 2 -14 15 0 11 -7
25 -15 32 -8 7 -16 22 -16 34 -2 19 -2 19 -6 -2 l-5 -23 -19 22 c-14 17 -19
18 -19 6 0 -8 6 -18 13 -21 6 -3 0 -3 -15 -1 -33 4 -36 -8 -8 -32 11 -10 20
-24 19 -33 0 -10 -2 -11 -6 -2 -2 6 -11 12 -19 12 -8 0 -14 9 -14 20 0 11 -2
20 -4 20 -2 0 -11 3 -20 6 -11 4 -16 1 -16 -10 0 -31 -18 -16 -25 21 -4 21
-12 41 -18 45 -8 5 -6 12 8 22 15 12 17 16 5 17 -8 1 -19 1 -23 0 -5 -1 -7 6
-5 16 2 10 11 17 20 15 8 -1 21 5 28 13 7 8 18 15 24 15 7 0 23 22 35 50 25
55 81 110 81 80z m-590 -18 c0 -13 -29 -48 -30 -35 0 6 -3 18 -6 27 -4 12 0
16 15 16 12 0 21 -4 21 -8z m-440 -82 c-19 -12 -35 3 -26 26 6 17 8 17 24 0
15 -15 15 -18 2 -26z m50 30 c-19 -13 -30 -13 -30 0 0 6 10 10 23 10 18 0 19
-2 7 -10z m70 -4 c0 -3 -4 -8 -10 -11 -5 -3 -10 -1 -10 4 0 6 5 11 10 11 6 0
10 -2 10 -4z m520 -26 c14 -11 20 -20 14 -20 -19 0 -64 26 -57 33 10 10 16 8
43 -13z m-130 -14 c0 -11 -19 -15 -25 -6 -3 5 1 10 9 10 9 0 16 -2 16 -4z
m-1040 -35 c0 -13 -26 -32 -33 -24 -14 13 -6 33 13 33 11 0 20 -4 20 -9z m150
-11 c0 -5 -2 -10 -4 -10 -3 0 -8 5 -11 10 -3 6 -1 10 4 10 6 0 11 -4 11 -10z
m130 -10 c-8 -5 -24 -9 -35 -9 l-20 0 20 9 c11 5 27 9 35 9 13 1 13 0 0 -9z
m-86 -25 c-16 -6 -35 -10 -41 -7 -26 9 -12 17 29 18 l42 2 -30 -13z m786 -5
c0 -5 -2 -10 -4 -10 -3 0 -8 5 -11 10 -3 6 -1 10 4 10 6 0 11 -4 11 -10z m140
-48 c0 -7 -4 -10 -10 -7 -5 3 -10 16 -10 28 0 18 2 19 10 7 5 -8 10 -21 10
-28z m-860 -23 c0 -6 -4 -7 -10 -4 -5 3 -10 11 -10 16 0 6 5 7 10 4 6 -3 10
-11 10 -16z m-56 -25 c3 -8 2 -12 -4 -9 -6 3 -10 10 -10 16 0 14 7 11 14 -7z
m467 6 c5 0 9 -9 9 -20 0 -11 3 -19 8 -18 17 3 42 -16 42 -33 0 -11 -7 -20
-17 -20 -10 -1 -29 -3 -42 -4 -23 -2 -24 -2 -6 11 14 10 15 14 4 15 -10 0 -10
2 -1 6 19 8 14 21 -10 25 -16 2 -23 10 -24 26 -1 16 3 21 13 18 8 -3 19 -6 24
-6z m-411 -44 c0 -4 -9 -1 -19 6 -11 7 -17 16 -15 20 5 8 34 -15 34 -26z m320
21 c12 3 20 0 20 -6 0 -7 3 -10 8 -7 4 2 16 -2 27 -11 19 -13 18 -14 -10 -8
-17 4 -25 3 -19 -2 17 -12 36 -52 29 -62 -3 -5 2 -17 11 -26 22 -21 11 -31
-15 -13 -14 10 -17 18 -10 28 11 18 12 31 2 28 -15 -3 -63 14 -63 23 0 12 17
11 43 -2 22 -11 22 -11 0 10 -13 12 -23 26 -23 31 0 5 -7 7 -15 4 -10 -4 -15
0 -14 12 0 11 3 14 5 8 3 -7 14 -10 24 -7z m640 -2 c0 -8 5 -15 11 -15 5 0 7
-5 3 -11 -4 -8 -9 -8 -17 0 -14 14 -18 41 -6 41 5 0 9 -7 9 -15z m60 -26 c0
-5 -6 -9 -13 -9 -8 0 -14 6 -14 14 0 8 6 12 14 9 7 -3 13 -9 13 -14z m-861 -3
c8 -10 9 -16 1 -21 -5 -3 -10 2 -10 12 0 15 -2 16 -10 3 -8 -13 -10 -12 -10 3
0 21 13 22 29 3z m129 -11 c-3 -3 -9 2 -12 12 -6 14 -5 15 5 6 7 -7 10 -15 7
-18z m-198 0 c0 -9 -6 -12 -17 -8 -11 4 -14 3 -9 -5 4 -6 28 -18 54 -26 l47
-15 -42 0 c-24 -1 -43 4 -43 9 0 6 -15 17 -32 25 -18 8 -28 15 -23 15 26 3 47
9 53 14 9 9 12 7 12 -9z m458 -23 c19 -24 14 -37 -6 -19 -10 10 -28 17 -40 17
-15 0 -20 5 -16 15 8 19 43 11 62 -13z m1129 22 c-3 -3 -12 -4 -19 -1 -8 3 -5
6 6 6 11 1 17 -2 13 -5z m-1420 -30 c23 -25 33 -48 11 -26 -7 7 -22 12 -35 12
-13 0 -26 7 -29 15 -4 8 -11 12 -17 8 -5 -3 -7 -2 -4 3 11 19 51 13 74 -12z
m703 16 c0 -5 -4 -10 -10 -10 -5 0 -10 5 -10 10 0 6 5 10 10 10 6 0 10 -4 10
-10z m146 -27 c-8 -8 -36 5 -36 17 0 7 6 7 21 0 11 -7 18 -14 15 -17z m-497
-5 c14 5 14 4 -1 -12 -20 -19 -38 -14 -38 12 0 12 3 13 11 5 6 -6 19 -9 28 -5z
m142 -5 c13 -15 12 -16 -6 -8 -11 5 -32 9 -47 9 -35 1 -25 16 11 16 16 0 35
-8 42 -17z m207 5 c-3 -7 -14 -12 -26 -11 -35 1 -38 4 -17 13 29 13 47 12 43
-2z m-520 -22 c6 -30 -16 -43 -33 -20 -20 27 -19 33 8 27 18 -4 19 -3 7 7 -13
10 -13 11 0 7 8 -2 17 -12 18 -21z m146 -10 c11 -6 26 -17 34 -23 7 -7 21 -13
30 -14 11 0 13 -2 4 -6 -10 -4 -10 -8 -1 -19 16 -19 6 -18 -36 6 -39 22 -85
18 -85 -7 0 -12 -3 -13 -14 -4 -17 14 -28 51 -14 51 5 0 6 9 3 21 -6 19 -4 20
26 14 18 -4 42 -13 53 -19z m-367 -6 c14 -11 33 -20 42 -20 10 0 22 -5 29 -12
9 -9 12 -9 12 1 0 7 12 -2 27 -21 15 -18 36 -39 46 -46 9 -7 15 -18 12 -23 -9
-14 -25 -11 -25 6 0 8 -4 15 -10 15 -5 0 -10 6 -10 13 0 15 -98 62 -122 58
-10 -1 -18 3 -18 8 0 6 -6 11 -14 11 -8 0 -16 7 -20 15 -8 22 21 19 51 -5z
m501 -11 c-3 -8 -7 -3 -11 10 -4 17 -3 21 5 13 5 -5 8 -16 6 -23z m67 -9 c3
-5 15 -10 26 -10 11 0 17 -5 14 -10 -4 -6 -13 -7 -23 -1 -9 4 -22 6 -28 4 -6
-2 -14 3 -17 12 -7 17 18 21 28 5z m-58 -55 c0 -7 -11 -10 -25 -7 -16 3 -20 7
-11 13 10 6 10 11 -2 25 -12 16 -11 16 12 -1 14 -11 26 -24 26 -30z m-1057 15
c-11 -20 -30 -28 -30 -12 0 11 22 32 32 32 5 0 4 -9 -2 -20z m790 -5 c0 -8 -6
-15 -14 -15 -8 0 -16 7 -20 15 -4 10 1 15 14 15 11 0 20 -7 20 -15z m330 -35
c0 -31 20 -53 21 -23 0 16 1 16 9 -2 14 -32 11 -41 -15 -53 -29 -13 -31 -11
-34 48 -2 25 -7 47 -13 49 -6 2 -5 7 3 12 19 12 29 1 29 -31z m67 24 c2 -7 -8
-9 -28 -6 -22 3 -27 7 -18 13 17 11 41 7 46 -7z m873 -4 c0 -5 -2 -10 -4 -10
-3 0 -8 5 -11 10 -3 6 -1 10 4 10 6 0 11 -4 11 -10z m-2104 -12 c3 -4 -4 -12
-16 -18 -23 -12 -48 0 -37 17 7 10 43 11 53 1z m544 -45 c0 -14 -3 -13 -16 5
-12 18 -19 20 -34 12 -15 -8 -21 -6 -29 9 -6 10 -8 21 -4 24 10 11 83 -33 83
-50z m60 37 c0 -5 -2 -10 -4 -10 -3 0 -8 5 -11 10 -3 6 -1 10 4 10 6 0 11 -4
11 -10z m294 -15 c-7 -16 -14 -18 -38 -9 -26 10 -18 24 14 24 22 0 28 -4 24
-15z m-514 -4 c0 -5 10 -11 22 -14 12 -4 20 -9 17 -11 -7 -8 -69 16 -69 26 0
4 7 8 15 8 8 0 15 -4 15 -9z m587 3 c-3 -3 -12 -4 -19 -1 -8 3 -5 6 6 6 11 1
17 -2 13 -5z m103 -4 c0 -13 -11 -13 -30 0 -12 8 -11 10 8 10 12 0 22 -4 22
-10z m-870 -32 c0 -5 -9 -6 -20 -3 -11 3 -20 2 -20 -3 0 -6 -6 -12 -14 -15
-11 -4 -14 1 -11 21 2 15 4 28 4 29 3 7 61 -21 61 -29z m474 13 c20 -22 18
-52 -4 -59 -8 -3 -12 -1 -8 3 4 5 3 14 -3 22 -6 7 -8 13 -4 13 5 0 -2 9 -15
20 -22 19 -22 20 -3 20 11 0 28 -9 37 -19z m-283 -45 c-7 -8 -11 -22 -9 -32 2
-9 -3 -19 -9 -21 -7 -3 -13 1 -13 7 0 16 33 71 38 65 3 -3 -1 -11 -7 -19z
m177 12 c-6 -18 -28 -21 -28 -4 0 9 7 16 16 16 9 0 14 -5 12 -12z m782 -17 c0
-5 -12 -12 -27 -14 -27 -4 -27 -4 -5 -12 12 -4 22 -11 22 -16 0 -5 9 -9 20 -9
12 0 17 5 14 14 -10 26 12 25 44 -4 35 -31 39 -40 17 -40 -8 0 -24 -9 -35 -20
-11 -11 -25 -20 -31 -20 -6 0 -13 9 -16 20 -6 23 -8 24 -33 10 -13 -7 -21 -7
-25 0 -9 15 -35 -7 -29 -24 2 -6 -5 -22 -16 -33 -20 -22 -20 -22 0 -33 17 -9
20 -8 20 11 0 19 4 21 36 14 27 -5 41 -2 57 12 19 17 20 17 14 0 -5 -13 0 -20
17 -27 13 -4 26 -16 29 -24 4 -9 13 -16 22 -16 8 0 15 -4 15 -9 0 -5 10 -12
23 -15 18 -4 -100 1 -168 7 -11 1 -20 -4 -20 -13 0 -21 -30 -24 -59 -4 -14 9
-26 12 -26 6 0 -5 -9 -12 -20 -15 -28 -7 -25 -35 5 -49 27 -12 36 -44 10 -34
-9 3 -24 0 -35 -6 -15 -10 -38 -8 -112 6 -51 10 -115 24 -141 32 -27 7 -53 12
-59 11 -6 -1 -13 4 -15 11 -4 9 2 11 20 7 34 -9 39 5 19 48 -16 38 -48 50 -58
24 -3 -10 -27 -14 -79 -15 -62 -2 -75 1 -75 14 0 11 6 13 19 9 13 -4 27 2 43
19 13 13 32 25 43 27 24 3 78 -11 85 -22 3 -4 23 -10 44 -12 21 -3 41 -9 45
-14 22 -33 113 -7 108 32 -1 14 5 21 22 23 13 2 26 -1 30 -6 4 -6 15 -6 31 1
21 8 22 11 7 14 -13 3 -16 10 -12 24 6 19 3 19 -44 13 -35 -4 -51 -3 -51 5 0
6 5 11 11 11 5 0 7 6 3 13 -6 10 -4 10 7 0 20 -19 39 -16 49 10 5 12 9 17 9
11 1 -6 13 -11 28 -11 24 0 25 1 9 13 -27 20 -11 35 24 22 17 -5 27 -14 24
-19 -3 -5 5 -9 17 -9 12 0 27 -6 33 -14 7 -10 21 -13 39 -9 l28 6 -28 18 c-15
10 -23 19 -18 20 6 1 -3 5 -20 9 -29 7 -29 7 -8 16 31 13 103 16 103 5z
m-1200 -11 c0 -5 -2 -10 -4 -10 -3 0 -8 5 -11 10 -3 6 -1 10 4 10 6 0 11 -4
11 -10z m668 -17 c6 -15 12 -36 12 -48 0 -25 -25 -63 -36 -53 -4 4 -1 14 6 23
8 10 9 15 1 15 -6 0 -11 -4 -11 -10 0 -5 -9 -10 -20 -10 -11 0 -20 4 -20 8 0
5 -12 14 -26 21 -31 14 -27 32 8 42 20 5 25 4 21 -7 -4 -10 3 -14 21 -14 14 0
26 -6 26 -12 0 -9 3 -9 9 1 6 9 4 19 -5 28 -15 15 -19 43 -6 43 4 0 13 -12 20
-27z m-258 -25 c0 -13 -23 -5 -28 10 -2 7 2 10 12 6 9 -3 16 -11 16 -16z m104
16 c25 -10 19 -24 -11 -25 -17 -1 -21 -3 -10 -6 30 -8 19 -24 -14 -21 -23 2
-34 10 -41 27 -6 18 -5 22 5 18 8 -3 20 -1 28 4 17 10 22 11 43 3z m354 -39
c-4 -29 -68 -35 -68 -6 0 19 15 26 53 27 12 0 17 -7 15 -21z m-908 -20 c0 -8
-4 -15 -9 -15 -13 0 -22 16 -14 24 11 11 23 6 23 -9z m404 -2 c4 -9 2 -21 -4
-27 -7 -7 -10 -7 -10 1 0 6 -3 18 -6 27 -3 9 -2 16 4 16 5 0 13 -8 16 -17z
m376 -13 c13 -8 13 -10 -2 -10 -9 0 -20 5 -23 10 -8 13 5 13 25 0z m60 -15
c10 -12 10 -15 -4 -15 -9 0 -16 -4 -16 -10 0 -5 -4 -10 -10 -10 -5 0 -10 11
-10 25 0 28 21 33 40 10z m538 -23 c2 -7 -3 -12 -12 -12 -9 0 -16 7 -16 16 0
17 22 14 28 -4z m-827 -63 c16 -32 0 -41 -51 -30 -24 5 -48 7 -52 5 -5 -3 -16
0 -25 8 -16 13 -5 16 109 37 4 0 12 -8 19 -20z m764 -59 c6 -5 31 -10 55 -12
33 -2 46 -8 48 -20 4 -21 -27 -25 -45 -7 -6 6 -26 13 -43 15 -59 7 -111 25
-104 35 7 12 72 3 89 -11z m-165 -70 c0 -5 -2 -10 -4 -10 -3 0 -8 5 -11 10 -3
6 -1 10 4 10 6 0 11 -4 11 -10z"/>
<path d="M1887 1339 c7 -7 15 -10 18 -7 3 3 -2 9 -12 12 -14 6 -15 5 -6 -5z"/>
<path d="M2105 1273 c6 -32 -6 -46 -20 -23 -3 6 -11 10 -16 10 -6 0 3 -12 20
-26 17 -14 31 -32 31 -39 0 -7 6 -18 14 -24 28 -23 26 8 -5 71 -21 44 -29 53
-24 31z"/>
<path d="M1962 1248 c3 -7 20 -23 39 -36 19 -13 38 -31 43 -40 8 -15 7 -15 -7
-3 -24 19 -21 -1 4 -33 19 -24 77 -56 101 -56 14 0 -55 122 -72 127 -8 2 -37
15 -64 29 -30 16 -46 20 -44 12z"/>
<path d="M930 1270 c0 -5 9 -10 21 -10 11 0 17 5 14 10 -3 6 -13 10 -21 10 -8
0 -14 -4 -14 -10z"/>
<path d="M1360 1240 c0 -5 12 -10 28 -9 24 0 25 1 7 9 -27 12 -35 12 -35 0z"/>
<path d="M1390 1169 c7 -11 14 -18 17 -15 8 8 -5 36 -17 36 -7 0 -7 -6 0 -21z"/>
<path d="M1460 1140 c0 -5 5 -10 10 -10 6 0 10 5 10 10 0 6 -4 10 -10 10 -5 0
-10 -4 -10 -10z"/>
<path d="M1500 1106 c0 -9 5 -16 10 -16 6 0 10 4 10 9 0 6 -4 13 -10 16 -5 3
-10 -1 -10 -9z"/>
<path d="M1535 900 c3 -5 8 -10 11 -10 2 0 4 5 4 10 0 6 -5 10 -11 10 -5 0 -7
-4 -4 -10z"/>
<path d="M1745 970 c-30 -6 -30 -6 -5 -13 13 -3 29 -2 34 3 14 14 5 17 -29 10z"/>
<path d="M2346 739 c3 -5 16 -9 30 -9 13 0 24 -4 24 -10 0 -5 18 -10 40 -10
28 0 40 4 40 14 0 8 4 16 10 18 5 2 -27 4 -71 5 -45 1 -77 -3 -73 -8z"/>
<path d="M2378 573 c7 -3 16 -2 19 1 4 3 -2 6 -13 5 -11 0 -14 -3 -6 -6z"/>
<path d="M2414 515 c11 -8 22 -12 25 -9 6 6 -19 24 -34 24 -5 -1 -1 -7 9 -15z"/>
<path d="M2465 500 c4 -6 11 -8 16 -5 14 9 11 15 -7 15 -8 0 -12 -5 -9 -10z"/>
<path d="M2370 450 c8 -5 24 -10 35 -10 17 0 17 2 5 10 -8 5 -24 10 -35 10
-17 0 -17 -2 -5 -10z"/>
<path d="M1425 670 c3 -5 11 -10 16 -10 6 0 7 5 4 10 -3 6 -11 10 -16 10 -6 0
-7 -4 -4 -10z"/>
<path d="M1520 580 c-13 -8 -13 -11 -1 -22 12 -11 12 -10 6 2 -8 13 -7 13 8 1
15 -12 17 -11 17 2 0 21 -13 28 -30 17z"/>
<path d="M1858 303 c7 -3 16 -2 19 1 4 3 -2 6 -13 5 -11 0 -14 -3 -6 -6z"/>
<path d="M1724 215 c-18 -14 -18 -14 9 -15 17 0 27 5 27 15 0 19 -11 19 -36 0z"/>
<path d="M1738 143 c7 -3 16 -2 19 1 4 3 -2 6 -13 5 -11 0 -14 -3 -6 -6z"/>
</g>
</svg>
